<?xml version="1.0" encoding="utf-8"?>
<!-- Generator: Adobe Illustrator 23.0.5, SVG Export Plug-In . SVG Version: 6.00 Build 0)  -->
<svg version="1.1" id="Capa_1" xmlns="http://www.w3.org/2000/svg" xmlns:xlink="http://www.w3.org/1999/xlink" x="0px" y="0px"
	 viewBox="0 0 310.4 310.4" style="enable-background:new 0 0 310.4 310.4;" xml:space="preserve">
<path d="M171.5,147.2v13.7h21.3l0,21.5h-21.3v52.1c-6.1,1.7-12.5,2.7-19.1,3c-1,0-2-0.1-3-0.2v-54.9h-18.5v-21.5h18.5V145
	c0-18.4,11.2-28.4,27.6-28.4l16.6,0v20l-11.4,0C173.3,136.7,171.5,140.9,171.5,147.2z"/>
<g>
	<path d="M155.2,73C109.8,73,73,109.8,73,155.2c0,43.4,33.7,79,76.3,82c1,0.1,2,0.1,3,0.2c0.9,0,1.8,0,2.8,0h0.1
		c7.7,0,15.1-1,22.1-3c34.6-9.7,60.1-41.5,60.1-79.2C237.4,109.8,200.6,73,155.2,73z M177.3,218.7c-1.9,0.7-3.8,1.3-5.8,1.7
		c-5.2,1.3-10.7,2-16.3,2h-0.1c-1.9,0-3.9-0.1-5.8-0.3c-34.3-3-61.3-31.9-61.3-66.9c0-37.1,30.1-67.2,67.2-67.2
		c37,0,67.2,30.1,67.2,67.2C222.4,184.5,203.5,209.5,177.3,218.7z"/>
</g>
</svg>
