<?xml version="1.0" encoding="utf-8"?>
<!-- Generator: Adobe Illustrator 23.0.5, SVG Export Plug-In . SVG Version: 6.00 Build 0)  -->
<svg version="1.1" id="Capa_1" xmlns="http://www.w3.org/2000/svg" xmlns:xlink="http://www.w3.org/1999/xlink" x="0px" y="0px"
	 viewBox="0 0 310.4 310.4" style="enable-background:new 0 0 310.4 310.4;" xml:space="preserve">
<g>
	<path d="M155.2,73C109.8,73,73,109.8,73,155.2c0,43.4,33.7,79,76.3,82c1,0.1,2,0.1,3,0.2c0.9,0,1.8,0,2.8,0h0.1
		c7.7,0,15.1-1,22.1-3c34.6-9.7,60.1-41.5,60.1-79.2C237.4,109.8,200.6,73,155.2,73z M177.3,218.7c-1.9,0.7-3.8,1.3-5.8,1.7
		c-5.2,1.3-10.7,2-16.3,2h-0.1c-1.9,0-3.9-0.1-5.8-0.3c-34.3-3-61.3-31.9-61.3-66.9c0-37.1,30.1-67.2,67.2-67.2
		c37,0,67.2,30.1,67.2,67.2C222.4,184.5,203.5,209.5,177.3,218.7z"/>
</g>
<g>
	<path d="M171.7,155.2c0,9.1-7.4,16.5-16.5,16.5c-9.1,0-16.5-7.4-16.5-16.5c0-9.1,7.4-16.5,16.5-16.5
		C164.3,138.7,171.7,146.1,171.7,155.2z"/>
	<path d="M193.8,126c-0.8-2.2-2.1-4.1-3.7-5.7c-1.6-1.6-3.5-2.9-5.7-3.7c-1.7-0.7-4.4-1.5-9.2-1.7c-5.2-0.2-6.8-0.3-20-0.3
		c-13.2,0-14.8,0.1-20,0.3c-4.8,0.2-7.5,1-9.2,1.7c-2.2,0.8-4.1,2.1-5.7,3.7c-1.6,1.6-2.9,3.5-3.7,5.7c-0.7,1.7-1.5,4.4-1.7,9.2
		c-0.2,5.2-0.3,6.8-0.3,20c0,13.2,0.1,14.8,0.3,20c0.2,4.8,1,7.5,1.7,9.2c0.8,2.2,2.1,4.1,3.7,5.7c1.6,1.6,3.5,2.9,5.7,3.7
		c1.7,0.7,4.4,1.5,9.2,1.7c5.2,0.2,6.8,0.3,20,0.3c13.2,0,14.8-0.1,20-0.3c4.8-0.2,7.5-1,9.2-1.7c4.3-1.7,7.7-5.1,9.4-9.4
		c0.7-1.7,1.5-4.4,1.7-9.2c0.2-5.2,0.3-6.8,0.3-20c0-13.2-0.1-14.8-0.3-20C195.3,130.4,194.5,127.7,193.8,126z M155.2,180.7
		c-14.1,0-25.4-11.4-25.4-25.4s11.4-25.4,25.4-25.4c14.1,0,25.4,11.4,25.4,25.4S169.3,180.7,155.2,180.7z M181.7,134.7
		c-3.3,0-5.9-2.7-5.9-5.9c0-3.3,2.7-5.9,5.9-5.9s5.9,2.7,5.9,5.9C187.6,132,184.9,134.7,181.7,134.7z"/>
</g>
</svg>
