<?xml version="1.0" encoding="utf-8"?>
<!-- Generator: Adobe Illustrator 23.0.5, SVG Export Plug-In . SVG Version: 6.00 Build 0)  -->
<svg version="1.1" id="Capa_1" xmlns="http://www.w3.org/2000/svg" xmlns:xlink="http://www.w3.org/1999/xlink" x="0px" y="0px"
	 viewBox="0 0 310.4 310.4" style="enable-background:new 0 0 310.4 310.4;" xml:space="preserve">
<g>
	<path d="M155.2,73C109.8,73,73,109.8,73,155.2c0,43.4,33.7,79,76.3,82c1,0.1,2,0.1,3,0.2c0.9,0,1.8,0,2.8,0h0.1
		c7.7,0,15.1-1,22.1-3c34.6-9.7,60.1-41.5,60.1-79.2C237.4,109.8,200.6,73,155.2,73z M177.3,218.7c-1.9,0.7-3.8,1.3-5.8,1.7
		c-5.2,1.3-10.7,2-16.3,2h-0.1c-1.9,0-3.9-0.1-5.8-0.3c-34.3-3-61.3-31.9-61.3-66.9c0-37.1,30.1-67.2,67.2-67.2
		c37,0,67.2,30.1,67.2,67.2C222.4,184.5,203.5,209.5,177.3,218.7z"/>
</g>
<path d="M193.1,138.5c0,22-12.3,38.5-30.3,38.5c-6.1,0-11.8-3.3-13.7-7c0,0-3.3,12.9-4,15.4c-2.4,8.8-9.6,17.7-10.1,18.4
	c-0.4,0.5-1.2,0.3-1.3-0.3c-0.1-1.1-2-12.3,0.2-21.3c1.1-4.6,7.2-30.6,7.2-30.6s-1.8-3.6-1.8-8.9c0-8.3,4.8-14.5,10.8-14.5
	c5.1,0,7.6,3.8,7.6,8.4c0,5.1-3.3,12.8-4.9,19.9c-1.4,6,3,10.8,8.9,10.8c10.6,0,17.8-13.7,17.8-29.9c0-12.3-8.3-21.5-23.4-21.5
	c-17,0-27.6,12.7-27.6,26.9c0,4.9,1.4,8.3,3.7,11c1,1.2,1.2,1.7,0.8,3.1c-0.3,1-0.9,3.5-1.1,4.5c-0.4,1.4-1.5,1.9-2.8,1.4
	c-7.8-3.2-11.5-11.8-11.5-21.5c0-15.9,13.5-35.1,40.1-35.1C178.9,106.3,193.1,121.8,193.1,138.5z"/>
</svg>
