<?xml version="1.0" encoding="utf-8"?>
<!-- Generator: Adobe Illustrator 23.0.5, SVG Export Plug-In . SVG Version: 6.00 Build 0)  -->
<svg version="1.1" id="Capa_1" xmlns="http://www.w3.org/2000/svg" xmlns:xlink="http://www.w3.org/1999/xlink" x="0px" y="0px"
	 viewBox="0 0 310.4 310.4" style="enable-background:new 0 0 310.4 310.4;" xml:space="preserve">
<g>
	<path d="M155.2,73C109.8,73,73,109.8,73,155.2c0,43.4,33.7,79,76.3,82c1,0.1,2,0.1,3,0.2c0.9,0,1.8,0,2.8,0h0.1
		c7.7,0,15.1-1,22.1-3c34.6-9.7,60.1-41.5,60.1-79.2C237.4,109.8,200.6,73,155.2,73z M177.3,218.7c-1.9,0.7-3.8,1.3-5.8,1.7
		c-5.2,1.3-10.7,2-16.3,2h-0.1c-1.9,0-3.9-0.1-5.8-0.3c-34.3-3-61.3-31.9-61.3-66.9c0-37.1,30.1-67.2,67.2-67.2
		c37,0,67.2,30.1,67.2,67.2C222.4,184.5,203.5,209.5,177.3,218.7z"/>
</g>
<g>
	<path d="M180.6,166.7c0.3,0.5,0.3,3-0.7,5.9c-1,2.9-6,5.6-8.4,5.9c-2.2,0.3-4.9,0.5-7.9-0.5c-1.8-0.6-4.1-1.3-7.1-2.6
		c-12.5-5.4-20.7-18-21.3-18.9c-0.6-0.8-5.1-6.8-5.1-12.9c0-6.1,3.2-9.2,4.4-10.4c1.1-1.3,2.5-1.6,3.3-1.6c0.8,0,1.7,0,2.4,0
		c0.8,0,1.8-0.3,2.8,2.1c1,2.5,3.5,8.7,3.8,9.3c0.3,0.6,0.5,1.4,0.1,2.2c-0.4,0.8-1.8,2.6-3.1,4.3c-0.6,0.7-1.3,1.3-0.5,2.5
		c0.7,1.2,3.2,5.3,6.9,8.7c4.8,4.2,8.8,5.6,10.1,6.2c1.2,0.6,2,0.5,2.7-0.3c0.7-0.8,3.1-3.6,4-4.9c0.8-1.3,1.7-1,2.8-0.6
		c1.2,0.4,7.3,3.4,8.5,4.1C179.5,165.8,180.3,166.2,180.6,166.7z"/>
	<path d="M190.8,119.4c-9.4-9.5-22-14.7-35.4-14.7c-27.6,0-50,22.4-50,50c0,8.8,2.3,17.4,6.7,25l-7.1,25.9l26.5-7
		c7.3,4,15.5,6.1,23.9,6.1h0c27.6,0,50-22.4,50-50C205.4,141.4,200.2,128.9,190.8,119.4z M155.4,196.3L155.4,196.3
		c-7.5,0-14.8-2-21.2-5.8l-1.5-0.9l-15.7,4.1l4.2-15.3l-1-1.6c-4.2-6.6-6.4-14.3-6.4-22.1c0-22.9,18.7-41.6,41.6-41.6
		c11.1,0,21.5,4.3,29.4,12.2c7.9,7.9,12.2,18.3,12.2,29.4C197,177.7,178.3,196.3,155.4,196.3z"/>
</g>
</svg>
